<?xml version="1.0" encoding="utf-8" standalone="no"?>
<!DOCTYPE svg PUBLIC "-//W3C//DTD SVG 1.1//EN"
  "http://www.w3.org/Graphics/SVG/1.1/DTD/svg11.dtd">
<svg xmlns:xlink="http://www.w3.org/1999/xlink" width="460.8pt" height="345.6pt" viewBox="0 0 460.8 345.6" xmlns="http://www.w3.org/2000/svg" version="1.1">
 <metadata>
  <rdf:RDF xmlns:dc="http://purl.org/dc/elements/1.1/" xmlns:cc="http://creativecommons.org/ns#" xmlns:rdf="http://www.w3.org/1999/02/22-rdf-syntax-ns#">
   <cc:Work>
    <dc:type rdf:resource="http://purl.org/dc/dcmitype/StillImage"/>
    <dc:date>2024-12-03T17:29:39.054945</dc:date>
    <dc:format>image/svg+xml</dc:format>
    <dc:creator>
     <cc:Agent>
      <dc:title>Matplotlib v3.7.2, https://matplotlib.org/</dc:title>
     </cc:Agent>
    </dc:creator>
   </cc:Work>
  </rdf:RDF>
 </metadata>
 <defs>
  <style type="text/css">*{stroke-linejoin: round; stroke-linecap: butt}</style>
 </defs>
 <g id="figure_1">
  <g id="patch_1">
   <path d="M 0 345.6 
L 460.8 345.6 
L 460.8 0 
L 0 0 
z
" style="fill: #ffffff"/>
  </g>
  <g id="axes_1">
   <g id="patch_2">
    <path d="M 57.6 307.584 
L 414.72 307.584 
L 414.72 41.472 
L 57.6 41.472 
z
" style="fill: #ffffff"/>
   </g>
   <g id="matplotlib.axis_1">
    <g id="xtick_1">
     <g id="line2d_1">
      <defs>
       <path id="mab691fc905" d="M 0 0 
L 0 3.5 
" style="stroke: #000000; stroke-width: 0.8"/>
      </defs>
      <g>
       <use xlink:href="#mab691fc905" x="214.53589" y="307.584" style="stroke: #000000; stroke-width: 0.8"/>
      </g>
     </g>
     <g id="text_1">
      <!-- $\mathdefault{10^{1}}$ -->
      <g transform="translate(204.604467 325.23148) scale(0.15 -0.15)">
       <defs>
        <path id="CMR17-31" d="M 1702 4083 
C 1702 4217 1696 4224 1606 4224 
C 1357 3927 979 3833 621 3820 
C 602 3820 570 3820 563 3808 
C 557 3795 557 3782 557 3648 
C 755 3648 1088 3686 1344 3839 
L 1344 467 
C 1344 243 1331 166 781 166 
L 589 166 
L 589 0 
C 896 6 1216 12 1523 12 
C 1830 12 2150 6 2458 0 
L 2458 166 
L 2266 166 
C 1715 166 1702 236 1702 467 
L 1702 4083 
z
" transform="scale(0.015625)"/>
        <path id="CMR17-30" d="M 2688 2038 
C 2688 2430 2682 3099 2413 3613 
C 2176 4063 1798 4224 1466 4224 
C 1158 4224 768 4082 525 3620 
C 269 3137 243 2539 243 2038 
C 243 1671 250 1112 448 623 
C 723 -39 1216 -128 1466 -128 
C 1760 -128 2208 -7 2470 604 
C 2662 1048 2688 1568 2688 2038 
z
M 1466 -26 
C 1056 -26 813 328 723 816 
C 653 1196 653 1749 653 2109 
C 653 2604 653 3015 736 3407 
C 858 3954 1216 4121 1466 4121 
C 1728 4121 2067 3947 2189 3420 
C 2272 3054 2278 2623 2278 2109 
C 2278 1691 2278 1176 2202 797 
C 2067 96 1690 -26 1466 -26 
z
" transform="scale(0.015625)"/>
       </defs>
       <use xlink:href="#CMR17-31" transform="scale(0.996264)"/>
       <use xlink:href="#CMR17-30" transform="translate(45.690477 0) scale(0.996264)"/>
       <use xlink:href="#CMR17-31" transform="translate(91.380954 36.153639) scale(0.697382)"/>
      </g>
     </g>
    </g>
    <g id="xtick_2">
     <g id="line2d_2">
      <defs>
       <path id="m8e2e2b01f8" d="M 0 0 
L 0 2 
" style="stroke: #000000; stroke-width: 0.6"/>
      </defs>
      <g>
       <use xlink:href="#m8e2e2b01f8" x="73.832727" y="307.584" style="stroke: #000000; stroke-width: 0.6"/>
      </g>
     </g>
    </g>
    <g id="xtick_3">
     <g id="line2d_3">
      <g>
       <use xlink:href="#m8e2e2b01f8" x="109.280024" y="307.584" style="stroke: #000000; stroke-width: 0.6"/>
      </g>
     </g>
    </g>
    <g id="xtick_4">
     <g id="line2d_4">
      <g>
       <use xlink:href="#m8e2e2b01f8" x="134.430281" y="307.584" style="stroke: #000000; stroke-width: 0.6"/>
      </g>
     </g>
    </g>
    <g id="xtick_5">
     <g id="line2d_5">
      <g>
       <use xlink:href="#m8e2e2b01f8" x="153.938336" y="307.584" style="stroke: #000000; stroke-width: 0.6"/>
      </g>
     </g>
    </g>
    <g id="xtick_6">
     <g id="line2d_6">
      <g>
       <use xlink:href="#m8e2e2b01f8" x="169.877578" y="307.584" style="stroke: #000000; stroke-width: 0.6"/>
      </g>
     </g>
    </g>
    <g id="xtick_7">
     <g id="line2d_7">
      <g>
       <use xlink:href="#m8e2e2b01f8" x="183.354014" y="307.584" style="stroke: #000000; stroke-width: 0.6"/>
      </g>
     </g>
    </g>
    <g id="xtick_8">
     <g id="line2d_8">
      <g>
       <use xlink:href="#m8e2e2b01f8" x="195.027835" y="307.584" style="stroke: #000000; stroke-width: 0.6"/>
      </g>
     </g>
    </g>
    <g id="xtick_9">
     <g id="line2d_9">
      <g>
       <use xlink:href="#m8e2e2b01f8" x="205.324874" y="307.584" style="stroke: #000000; stroke-width: 0.6"/>
      </g>
     </g>
    </g>
    <g id="xtick_10">
     <g id="line2d_10">
      <g>
       <use xlink:href="#m8e2e2b01f8" x="275.133443" y="307.584" style="stroke: #000000; stroke-width: 0.6"/>
      </g>
     </g>
    </g>
    <g id="xtick_11">
     <g id="line2d_11">
      <g>
       <use xlink:href="#m8e2e2b01f8" x="310.58074" y="307.584" style="stroke: #000000; stroke-width: 0.6"/>
      </g>
     </g>
    </g>
    <g id="xtick_12">
     <g id="line2d_12">
      <g>
       <use xlink:href="#m8e2e2b01f8" x="335.730997" y="307.584" style="stroke: #000000; stroke-width: 0.6"/>
      </g>
     </g>
    </g>
    <g id="xtick_13">
     <g id="line2d_13">
      <g>
       <use xlink:href="#m8e2e2b01f8" x="355.239052" y="307.584" style="stroke: #000000; stroke-width: 0.6"/>
      </g>
     </g>
    </g>
    <g id="xtick_14">
     <g id="line2d_14">
      <g>
       <use xlink:href="#m8e2e2b01f8" x="371.178294" y="307.584" style="stroke: #000000; stroke-width: 0.6"/>
      </g>
     </g>
    </g>
    <g id="xtick_15">
     <g id="line2d_15">
      <g>
       <use xlink:href="#m8e2e2b01f8" x="384.65473" y="307.584" style="stroke: #000000; stroke-width: 0.6"/>
      </g>
     </g>
    </g>
    <g id="xtick_16">
     <g id="line2d_16">
      <g>
       <use xlink:href="#m8e2e2b01f8" x="396.328551" y="307.584" style="stroke: #000000; stroke-width: 0.6"/>
      </g>
     </g>
    </g>
    <g id="xtick_17">
     <g id="line2d_17">
      <g>
       <use xlink:href="#m8e2e2b01f8" x="406.62559" y="307.584" style="stroke: #000000; stroke-width: 0.6"/>
      </g>
     </g>
    </g>
    <g id="text_2">
     <!-- $n$ -->
     <g transform="translate(230.336995 346.611101) scale(0.2 -0.2)">
      <defs>
       <path id="CMMI12-6e" d="M 1318 1870 
C 1331 1909 1491 2228 1728 2432 
C 1894 2585 2112 2687 2362 2687 
C 2618 2687 2707 2496 2707 2241 
C 2707 1877 2445 1149 2317 804 
C 2259 651 2227 568 2227 453 
C 2227 166 2426 -64 2733 -64 
C 3328 -64 3552 874 3552 913 
C 3552 945 3526 970 3488 970 
C 3430 970 3424 951 3392 842 
C 3245 319 3002 64 2752 64 
C 2688 64 2586 70 2586 274 
C 2586 434 2656 625 2694 715 
C 2822 1066 3091 1781 3091 2145 
C 3091 2528 2867 2816 2381 2816 
C 1811 2816 1510 2413 1395 2253 
C 1376 2617 1114 2816 832 2816 
C 627 2816 486 2694 378 2477 
C 262 2247 173 1864 173 1838 
C 173 1813 198 1781 243 1781 
C 294 1781 301 1787 339 1934 
C 442 2324 557 2687 813 2687 
C 960 2687 1011 2585 1011 2394 
C 1011 2253 947 2004 902 1807 
L 723 1117 
C 698 996 627 708 595 593 
C 550 427 480 127 480 95 
C 480 6 550 -64 646 -64 
C 723 -64 813 -26 864 70 
C 877 102 934 325 966 453 
L 1107 1028 
L 1318 1870 
z
" transform="scale(0.015625)"/>
      </defs>
      <use xlink:href="#CMMI12-6e" transform="scale(0.996264)"/>
     </g>
    </g>
   </g>
   <g id="matplotlib.axis_2">
    <g id="ytick_1">
     <g id="line2d_18">
      <defs>
       <path id="m0c21b27b7f" d="M 0 0 
L -3.5 0 
" style="stroke: #000000; stroke-width: 0.8"/>
      </defs>
      <g>
       <use xlink:href="#m0c21b27b7f" x="57.6" y="230.317826" style="stroke: #000000; stroke-width: 0.8"/>
      </g>
     </g>
     <g id="text_3">
      <!-- $\mathdefault{10^{-2}}$ -->
      <g transform="translate(22.601008 235.641566) scale(0.15 -0.15)">
       <defs>
        <path id="CMSY10-0" d="M 4218 1472 
C 4326 1472 4442 1472 4442 1600 
C 4442 1728 4326 1728 4218 1728 
L 755 1728 
C 646 1728 531 1728 531 1600 
C 531 1472 646 1472 755 1472 
L 4218 1472 
z
" transform="scale(0.015625)"/>
        <path id="CMR17-32" d="M 2669 990 
L 2554 990 
C 2490 537 2438 460 2413 422 
C 2381 371 1920 371 1830 371 
L 602 371 
C 832 620 1280 1073 1824 1596 
C 2214 1966 2669 2400 2669 3033 
C 2669 3788 2067 4224 1395 4224 
C 691 4224 262 3603 262 3027 
C 262 2777 448 2745 525 2745 
C 589 2745 781 2783 781 3007 
C 781 3206 614 3264 525 3264 
C 486 3264 448 3257 422 3244 
C 544 3788 915 4057 1306 4057 
C 1862 4057 2227 3616 2227 3033 
C 2227 2477 1901 1998 1536 1583 
L 262 147 
L 262 0 
L 2515 0 
L 2669 990 
z
" transform="scale(0.015625)"/>
       </defs>
       <use xlink:href="#CMR17-31" transform="scale(0.996264)"/>
       <use xlink:href="#CMR17-30" transform="translate(45.690477 0) scale(0.996264)"/>
       <use xlink:href="#CMSY10-0" transform="translate(91.380954 36.153639) scale(0.697382)"/>
       <use xlink:href="#CMR17-32" transform="translate(145.621947 36.153639) scale(0.697382)"/>
      </g>
     </g>
    </g>
    <g id="ytick_2">
     <g id="line2d_19">
      <g>
       <use xlink:href="#m0c21b27b7f" x="57.6" y="104.4246" style="stroke: #000000; stroke-width: 0.8"/>
      </g>
     </g>
     <g id="text_4">
      <!-- $\mathdefault{10^{-1}}$ -->
      <g transform="translate(22.601008 109.74834) scale(0.15 -0.15)">
       <use xlink:href="#CMR17-31" transform="scale(0.996264)"/>
       <use xlink:href="#CMR17-30" transform="translate(45.690477 0) scale(0.996264)"/>
       <use xlink:href="#CMSY10-0" transform="translate(91.380954 36.153639) scale(0.697382)"/>
       <use xlink:href="#CMR17-31" transform="translate(145.621947 36.153639) scale(0.697382)"/>
      </g>
     </g>
    </g>
    <g id="ytick_3">
     <g id="line2d_20">
      <defs>
       <path id="m3d05dae2e7" d="M 0 0 
L -2 0 
" style="stroke: #000000; stroke-width: 0.6"/>
      </defs>
      <g>
       <use xlink:href="#m3d05dae2e7" x="57.6" y="296.144719" style="stroke: #000000; stroke-width: 0.6"/>
      </g>
     </g>
    </g>
    <g id="ytick_4">
     <g id="line2d_21">
      <g>
       <use xlink:href="#m3d05dae2e7" x="57.6" y="280.415778" style="stroke: #000000; stroke-width: 0.6"/>
      </g>
     </g>
    </g>
    <g id="ytick_5">
     <g id="line2d_22">
      <g>
       <use xlink:href="#m3d05dae2e7" x="57.6" y="268.215464" style="stroke: #000000; stroke-width: 0.6"/>
      </g>
     </g>
    </g>
    <g id="ytick_6">
     <g id="line2d_23">
      <g>
       <use xlink:href="#m3d05dae2e7" x="57.6" y="258.247081" style="stroke: #000000; stroke-width: 0.6"/>
      </g>
     </g>
    </g>
    <g id="ytick_7">
     <g id="line2d_24">
      <g>
       <use xlink:href="#m3d05dae2e7" x="57.6" y="249.818934" style="stroke: #000000; stroke-width: 0.6"/>
      </g>
     </g>
    </g>
    <g id="ytick_8">
     <g id="line2d_25">
      <g>
       <use xlink:href="#m3d05dae2e7" x="57.6" y="242.51814" style="stroke: #000000; stroke-width: 0.6"/>
      </g>
     </g>
    </g>
    <g id="ytick_9">
     <g id="line2d_26">
      <g>
       <use xlink:href="#m3d05dae2e7" x="57.6" y="236.078384" style="stroke: #000000; stroke-width: 0.6"/>
      </g>
     </g>
    </g>
    <g id="ytick_10">
     <g id="line2d_27">
      <g>
       <use xlink:href="#m3d05dae2e7" x="57.6" y="192.420189" style="stroke: #000000; stroke-width: 0.6"/>
      </g>
     </g>
    </g>
    <g id="ytick_11">
     <g id="line2d_28">
      <g>
       <use xlink:href="#m3d05dae2e7" x="57.6" y="170.251492" style="stroke: #000000; stroke-width: 0.6"/>
      </g>
     </g>
    </g>
    <g id="ytick_12">
     <g id="line2d_29">
      <g>
       <use xlink:href="#m3d05dae2e7" x="57.6" y="154.522551" style="stroke: #000000; stroke-width: 0.6"/>
      </g>
     </g>
    </g>
    <g id="ytick_13">
     <g id="line2d_30">
      <g>
       <use xlink:href="#m3d05dae2e7" x="57.6" y="142.322237" style="stroke: #000000; stroke-width: 0.6"/>
      </g>
     </g>
    </g>
    <g id="ytick_14">
     <g id="line2d_31">
      <g>
       <use xlink:href="#m3d05dae2e7" x="57.6" y="132.353855" style="stroke: #000000; stroke-width: 0.6"/>
      </g>
     </g>
    </g>
    <g id="ytick_15">
     <g id="line2d_32">
      <g>
       <use xlink:href="#m3d05dae2e7" x="57.6" y="123.925707" style="stroke: #000000; stroke-width: 0.6"/>
      </g>
     </g>
    </g>
    <g id="ytick_16">
     <g id="line2d_33">
      <g>
       <use xlink:href="#m3d05dae2e7" x="57.6" y="116.624914" style="stroke: #000000; stroke-width: 0.6"/>
      </g>
     </g>
    </g>
    <g id="ytick_17">
     <g id="line2d_34">
      <g>
       <use xlink:href="#m3d05dae2e7" x="57.6" y="110.185158" style="stroke: #000000; stroke-width: 0.6"/>
      </g>
     </g>
    </g>
    <g id="ytick_18">
     <g id="line2d_35">
      <g>
       <use xlink:href="#m3d05dae2e7" x="57.6" y="66.526962" style="stroke: #000000; stroke-width: 0.6"/>
      </g>
     </g>
    </g>
    <g id="ytick_19">
     <g id="line2d_36">
      <g>
       <use xlink:href="#m3d05dae2e7" x="57.6" y="44.358265" style="stroke: #000000; stroke-width: 0.6"/>
      </g>
     </g>
    </g>
    <g id="text_5">
     <!-- $\pi_n$ -->
     <g transform="translate(14.357035 184.137685) rotate(-90) scale(0.2 -0.2)">
      <defs>
       <path id="CMMI12-19" d="M 1658 2406 
L 2381 2406 
C 2208 1691 2099 1225 2099 715 
C 2099 625 2099 -64 2362 -64 
C 2496 -64 2611 57 2611 166 
C 2611 198 2611 210 2566 306 
C 2394 746 2394 1295 2394 1340 
C 2394 1378 2394 1832 2528 2406 
L 3245 2406 
C 3328 2406 3539 2406 3539 2611 
C 3539 2752 3418 2752 3302 2752 
L 1197 2752 
C 1050 2752 832 2752 538 2438 
C 371 2253 166 1915 166 1876 
C 166 1838 198 1825 237 1825 
C 282 1825 288 1844 320 1883 
C 653 2406 986 2406 1146 2406 
L 1510 2406 
C 1370 1927 1210 1372 685 255 
C 634 153 634 140 634 102 
C 634 -32 749 -64 806 -64 
C 992 -64 1043 102 1120 370 
C 1222 695 1222 708 1286 964 
L 1658 2406 
z
" transform="scale(0.015625)"/>
      </defs>
      <use xlink:href="#CMMI12-19" transform="scale(0.996264)"/>
      <use xlink:href="#CMMI12-6e" transform="translate(55.336008 -14.943915) scale(0.697382)"/>
     </g>
    </g>
   </g>
   <g id="LineCollection_1">
    <path d="M 73.832727 66.388563 
L 73.832727 53.568 
" clip-path="url(#pd93cf7a59c)" style="fill: none; stroke: #1f77b4; stroke-width: 1.5"/>
    <path d="M 109.280024 78.254093 
L 109.280024 63.700977 
" clip-path="url(#pd93cf7a59c)" style="fill: none; stroke: #1f77b4; stroke-width: 1.5"/>
    <path d="M 134.430281 91.987944 
L 134.430281 75.265381 
" clip-path="url(#pd93cf7a59c)" style="fill: none; stroke: #1f77b4; stroke-width: 1.5"/>
    <path d="M 153.938336 103.71807 
L 153.938336 84.983908 
" clip-path="url(#pd93cf7a59c)" style="fill: none; stroke: #1f77b4; stroke-width: 1.5"/>
    <path d="M 169.877578 129.044029 
L 169.877578 105.386758 
" clip-path="url(#pd93cf7a59c)" style="fill: none; stroke: #1f77b4; stroke-width: 1.5"/>
    <path d="M 195.027835 134.733917 
L 195.027835 109.848522 
" clip-path="url(#pd93cf7a59c)" style="fill: none; stroke: #1f77b4; stroke-width: 1.5"/>
    <path d="M 222.868267 159.956115 
L 222.868267 129.010026 
" clip-path="url(#pd93cf7a59c)" style="fill: none; stroke: #1f77b4; stroke-width: 1.5"/>
    <path d="M 243.951568 176.508433 
L 243.951568 140.978556 
" clip-path="url(#pd93cf7a59c)" style="fill: none; stroke: #1f77b4; stroke-width: 1.5"/>
    <path d="M 270.649189 199.514518 
L 270.649189 156.706391 
" clip-path="url(#pd93cf7a59c)" style="fill: none; stroke: #1f77b4; stroke-width: 1.5"/>
    <path d="M 298.070322 202.119302 
L 298.070322 158.415357 
" clip-path="url(#pd93cf7a59c)" style="fill: none; stroke: #1f77b4; stroke-width: 1.5"/>
    <path d="M 321.522976 224.38771 
L 321.522976 172.380289 
" clip-path="url(#pd93cf7a59c)" style="fill: none; stroke: #1f77b4; stroke-width: 1.5"/>
    <path d="M 347.949516 242.080733 
L 347.949516 182.59839 
" clip-path="url(#pd93cf7a59c)" style="fill: none; stroke: #1f77b4; stroke-width: 1.5"/>
    <path d="M 398.487273 295.488 
L 398.487273 208.083883 
" clip-path="url(#pd93cf7a59c)" style="fill: none; stroke: #1f77b4; stroke-width: 1.5"/>
   </g>
   <g id="line2d_37">
    <path d="M 73.832727 54.326648 
L 109.280024 76.495345 
L 134.430281 92.224285 
L 153.938336 104.4246 
L 169.877578 114.392982 
L 195.027835 130.121923 
L 222.868267 147.533296 
L 243.951568 160.718767 
L 270.649189 177.415427 
L 298.070322 194.564571 
L 321.522976 209.231833 
L 347.949516 225.758959 
L 398.487273 257.365211 
" clip-path="url(#pd93cf7a59c)" style="fill: none; stroke-dasharray: 5.55,2.4; stroke-dashoffset: 0; stroke: #000000; stroke-width: 1.5"/>
   </g>
   <g id="line2d_38">
    <path d="M 73.832727 59.603356 
L 109.280024 70.494746 
L 134.430281 82.989803 
L 153.938336 93.552482 
L 169.877578 115.945716 
L 195.027835 120.88744 
L 222.868267 142.322237 
L 243.951568 155.906796 
L 270.649189 174.023659 
L 298.070322 176.01205 
L 321.522976 192.420189 
L 347.949516 204.620503 
L 398.487273 235.914114 
" clip-path="url(#pd93cf7a59c)" style="fill: none; stroke: #1f77b4; stroke-width: 1.5; stroke-linecap: square"/>
   </g>
   <g id="patch_3">
    <path d="M 57.6 307.584 
L 57.6 41.472 
" style="fill: none; stroke: #000000; stroke-width: 0.8; stroke-linejoin: miter; stroke-linecap: square"/>
   </g>
   <g id="patch_4">
    <path d="M 414.72 307.584 
L 414.72 41.472 
" style="fill: none; stroke: #000000; stroke-width: 0.8; stroke-linejoin: miter; stroke-linecap: square"/>
   </g>
   <g id="patch_5">
    <path d="M 57.6 307.584 
L 414.72 307.584 
" style="fill: none; stroke: #000000; stroke-width: 0.8; stroke-linejoin: miter; stroke-linecap: square"/>
   </g>
   <g id="patch_6">
    <path d="M 57.6 41.472 
L 414.72 41.472 
" style="fill: none; stroke: #000000; stroke-width: 0.8; stroke-linejoin: miter; stroke-linecap: square"/>
   </g>
  </g>
 </g>
 <defs>
  <clipPath id="pd93cf7a59c">
   <rect x="57.6" y="41.472" width="357.12" height="266.112"/>
  </clipPath>
 </defs>
</svg>
